<svg xmlns="http://www.w3.org/2000/svg" viewBox="0 0 520 160" role="img" aria-label="Shorexplorations">
  <g fill="#050505">
    <path d="M82 11c-5 0-11 4-15 9L50 42h64L98 20c-4-5-10-9-16-9Z"/>
    <path d="M48 47h68v15H48zM39 69h87c8 0 14 6 14 14v5H25v-5c0-8 6-14 14-14Z"/>
    <path d="M38 104c18-14 39-25 64-31 11-3 19 6 18 16-1 8-6 14-14 16-22 5-41 13-58 24-8 5-18-1-18-10 0-6 3-11 8-15Z"/>
    <path d="M23 136c18 9 61 12 104 2 7-2 14 3 15 10 1 6-3 12-9 14-47 13-94 9-117-4-6-3-8-11-4-17 3-5 7-7 11-5Z"/>
    <path d="M45 49 0 30l2-10 43 12v17ZM119 49l45-19-2-10-43 12v17Z"/>
  </g>
  <text x="178" y="107" fill="#050505" font-family="Georgia, 'Times New Roman', serif" font-size="58" letter-spacing="-3">shorexplorations</text>
</svg>
